# AST/ASF file generated using VICON BodyLanguage
# -----------------------------------------------
:version 1.10
:name VICON
:units
  mass 1.0
  length 0.45
  angle deg
:documentation
   .ast/.asf automatically generated from VICON data using
   VICON BodyBuilder and BodyLanguage model FoxedUp or BRILLIANT.MOD
:root
   order TX TY TZ RX RY RZ
   axis XYZ
   position 0 0 0  
   orientation 0 0 0 
:bonedata
  begin
     id 1 
     name lhipjoint
     direction 0.643822 -0.745931 0.170529 
     length 2.62041 
     axis 0 0 0  XYZ
  end
  begin
     id 2 
     name lfemur
     direction 0.34202 -0.939693 0  
     length 7.92179  
     axis 0 0 20  XYZ
    dof rx ry rz
    limits (-160.0 20.0)
           (-70.0 70.0)
           (-60.0 70.0)
  end
  begin
     id 3 
     name ltibia
     direction 0.34202 -0.939693 0   
     length 8.16326   
     axis 0 0 20   XYZ
    dof rx
    limits (-10.0 170.0)
  end
  begin
     id 4 
     name lfoot
     direction 0.0837341 -0.230058 0.969568   
     length 1.94455   
     axis -90 7.62852e-016 20   XYZ
    dof rx rz
    limits (-45.0 90.0)
           (-70.0 20.0)
  end
  begin
     id 5 
     name ltoes
     direction 1.5356e-011 -4.21695e-011 1   
     length 0.978804   
     axis -90 7.62852e-016 20   XYZ
    dof rx
    limits (-90.0 20.0)
  end
  begin
     id 6 
     name rhipjoint
     direction -0.656883 -0.73503 0.168037   
     length 2.65927  
     axis 0 0 0  XYZ 
  end
  begin
     id 7 
     name rfemur
     direction -0.34202 -0.939693 0   
     length 7.58746   
     axis 0 0 -20   XYZ
    dof rx ry rz
    limits (-160.0 20.0)
           (-70.0 70.0)
           (-70.0 60.0)
  end
  begin
     id 8 
     name rtibia
     direction -0.342117 -0.939657 0   
     length 8.27303   
     axis 0 0 -20   XYZ
    dof rx
    limits (-10.0 170.0)
 end
 begin
     id 9 
     name rfoot
     direction -0.0685862 -0.188439 0.979687   
     length 2.13088  
     axis -90 -7.62852e-016 -20   XYZ
    dof rx rz
    limits (-45.0 90.0)
           (-20.0 70.0)
  end
  begin
     id 10 
     name rtoes
     direction -1.53538e-011 -4.21514e-011 1   
     length 1.07326   
     axis -90 -7.62852e-016 -20   XYZ
    dof rx
    limits (-90.0 20.0)
  end
  begin
     id 11 
     name lowerback
     direction -0.0358974 0.997216 0.065354   
     length 1.87174   
     axis 0 0 0   XYZ
    dof rx ry rz
    limits (-20.0 45.0)
           (-30.0 30.0)
           (-30.0 30.0)
  end
  begin
     id 12 
     name upperback
     direction 0.0202028 0.998565 0.0495864   
     length 1.8684   
     axis 0 0 0   XYZ
    dof rx ry rz
    limits (-20.0 45.0)
           (-30.0 30.0)
           (-30.0 30.0)
  end
  begin
     id 13 
     name thorax
     direction 0.0366367 0.999163 0.0182199   
     length 1.87747   
     axis 0 0 0   XYZ
    dof rx ry rz
    limits (-20.0 45.0)
           (-30.0 30.0)
           (-30.0 30.0)
  end
  begin
     id 14 
     name lowerneck
     direction 0.0284381 0.999578 -0.00598196   
     length 1.84583   
     axis 0 0 0   XYZ
    dof rx ry rz
    limits (-20.0 45.0)
           (-30.0 30.0)
           (-30.0 30.0)
  end
  begin
     id 15 
     name upperneck
     direction -0.0888142 0.993333 -0.0734973   
     length 1.84467   
     axis 0 0 0   XYZ
    dof rx ry rz
    limits (-20.0 45.0)
           (-30.0 30.0)
           (-30.0 30.0)
  end
  begin
     id 16
     name head
     direction -0.0296474 0.999102 -0.0302696  
     length 1.86566  
     axis 0 0 0   XYZ
    dof rx ry rz
    limits (-20.0 45.0)
           (-30.0 30.0)
           (-30.0 30.0)
  end
  begin
     id 17 
     name lclavicle
     direction 0.933925 0.35714 -0.0153523  
     length 3.93442  
     axis 0 0 0   XYZ
    dof ry rz
    limits (-20.0 10.0)
           (0.0 20.0)
  end
  begin
     id 18 
     name lhumerus
     direction 1 -4.48967e-011 2.12044e-027   
     length 5.78174   
     axis 180 -30 -90   XYZ
    dof rx ry rz
    limits (-60.0 90.0)
           (-90.0 90.0)
           (-90.0 90.0)
  end
  begin
     id 19
     name lradius
     direction 1 -4.48972e-011 6.45701e-027   
     length 3.53992   
     axis 180 -30 -90   XYZ
    dof rx
    limits (-10.0 170.0)
  end
  begin
     id 20
     name lwrist
     direction 1 -4.48981e-011 1.70244e-026   
     length 1.76996   
     axis -1.1226e-014 90 90   XYZ
    dof ry
    limits (-180.0 0.0)
 end
  begin
     id 21 
     name lhand
     direction 1 -4.4879e-011 3.40615e-026   
     length 0.550243   
     axis -2.17265e-014 90 90   XYZ
    dof rx rz
    limits (-90.0 90.0)
           (-45.0 45.0)
  end
  begin
     id 22 
     name lfingers
     direction 1 -4.49029e-011 6.80911e-026   
     length 0.44362   
     axis -4.34526e-014 90 90   XYZ
    dof rx
    limits (0.0 90.0)
  end
  begin
     id 23
     name lthumb
     direction 0.707107 -6.34923e-011 0.707107   
     length 0.636952   
     axis -90 45 -1.62303e-014   XYZ
    dof rx rz
    limits (-45.0 45.0)
           (-45.0 45.0)
  end
  begin
     id 24 
     name rclavicle
     direction -0.950832 0.305106 0.0531883   
     length 3.96125  
     axis 0 0 0   XYZ 
    dof ry rz
    limits (-10.0 20.0)
           (-20.0 0.0)
  end
  begin
     id 25 
     name rhumerus
     direction -1 -4.48961e-011 -6.07392e-030  
     length 5.79352   
     axis 180 30 90   XYZ
    dof rx ry rz
    limits (-90.0 60.0)
           (-90.0 90.0)
           (-90.0 90.0)
  end
  begin
     id 26 
     name rradius
     direction -1 -4.48964e-011 5.97548e-027   
     length 3.37081   
     axis 180 30 90   XYZ
    dof rx
    limits (-10.0 170.0)
  end
  begin
     id 27 
     name rwrist
     direction -1 -4.49021e-011 1.7023e-026   
     length 1.68541   
     axis -1.1226e-014 -90 -90   XYZ
    dof ry
    limits (-180.0 0.0)
  end
  begin
     id 28
     name rhand
     direction -1 -4.48867e-011 3.40563e-026   
     length 0.679827   
     axis -2.17265e-014 -90 -90   XYZ
    dof rx rz
    limits (-90.0 90.0)
           (-45.0 45.0)
  end
  begin
     id 29
     name rfingers
     direction -1 -4.49024e-011 6.80917e-026   
     length 0.548094   
     axis -4.34526e-014 -90 -90   XYZ
    dof rx
    limits (0.0 90.0)
  end
  begin
     id 30
     name rthumb
     direction -0.707107 -6.3488e-011 0.707107   
     length 0.786956   
     axis -90 -45 1.62303e-014   XYZ
    dof rx rz
    limits (-45.0 45.0)
           (-45.0 45.0)
  end
:hierarchy
  begin
    root lhipjoint rhipjoint lowerback
    lhipjoint lfemur
    lfemur ltibia
    ltibia lfoot
    lfoot ltoes
    rhipjoint rfemur
    rfemur rtibia
    rtibia rfoot
    rfoot rtoes
    lowerback upperback
    upperback thorax
    thorax lowerneck lclavicle rclavicle
    lowerneck upperneck
    upperneck head
    lclavicle lhumerus
    lhumerus lradius
    lradius lwrist
    lwrist lhand lthumb
    lhand lfingers
    rclavicle rhumerus
    rhumerus rradius
    rradius rwrist
    rwrist rhand rthumb
    rhand rfingers
  end

#!OML:ASF H:\Terrain\Patient Classification 1\PaulMetrics\Match1Take2\PaulMetrics.ASF
:FULLY-SPECIFIED
:DEGREES
20
root 6.0744 18.0199 -12.3826 -165.428 27.6746 175.715
lowerback -8.08489 -2.79274 -6.94389
upperback -6.17478 -2.86242 1.93077
thorax -1.46384 -0.999519 5.7092
lowerneck -5.45936 6.38714 4.47942
upperneck 11.1343 9.38658 -7.55243
head 4.80144 4.50076 -2.4697
rclavicle 9.2907e-014 -1.19271e-015
rhumerus -57.3131 14.7933 -91.4448
rradius 44.564
rwrist -9.39288
rhand -11.4886 -32.8064
rfingers 7.12502
rthumb 14.5498 -62.2762
lclavicle 9.2907e-014 -1.19271e-015
lhumerus -45.6952 -18.1723 86.0641
lradius 77.3066
lwrist 7.16434
lhand -22.9916 -10.2359
lfingers 7.12502
lthumb 3.45125 19.7159
rfemur -39.0449 7.38815 10.8894
rtibia 11.1412
rfoot -5.95221 -28.6315
rtoes -2.28457
lfemur -4.38237 -1.50075 -25.4466
ltibia 20.379
lfoot -17.2393 0.629373
ltoes -33.1103
21
root 6.18867 18.035 -12.5228 -165.588 27.5853 175.861
lowerback -7.8813 -2.80249 -6.73552
upperback -6.17955 -2.90684 1.96646
thorax -1.58046 -1.02515 5.63261
lowerneck -3.86062 6.30071 2.89834
upperneck 9.80301 9.19922 -6.4909
head 3.99562 4.45824 -1.98705
rclavicle -3.41288e-014 1.11319e-014
rhumerus -57.4598 14.8585 -91.593
rradius 44.378
rwrist -9.39998
rhand -11.4292 -32.5275
rfingers 7.12502
rthumb 14.607 -61.9931
lclavicle -3.41288e-014 1.11319e-014
lhumerus -46.0449 -18.0976 86.366
lradius 76.6334
lwrist 6.55195
lhand -22.5356 -9.89309
lfingers 7.12502
lthumb 3.89157 20.0511
rfemur -39.2122 6.64765 11.8006
rtibia 12.8935
rfoot -4.74327 -27.9045
rtoes 0.571115
lfemur -3.86388 -1.36366 -25.0837
ltibia 20.8576
lfoot -16.6503 0.68521
ltoes -35.4438
22
root 6.30556 18.0352 -12.6621 -165.599 27.6609 176.139
lowerback -7.83577 -2.75055 -6.41589
upperback -6.17644 -2.85991 2.0239
thorax -1.61818 -1.00992 5.51724
lowerneck -4.97506 6.32538 3.78704
upperneck 10.9946 9.32856 -7.14861
head 4.62259 4.48496 -2.25986
rclavicle 8.47258e-014 1.03368e-014
rhumerus -57.6068 15.0208 -91.7754
rradius 44.291
rwrist -9.53434
rhand -11.44 -32.0847
rfingers 7.12502
rthumb 14.5966 -61.5511
lclavicle 8.47258e-014 1.03368e-014
lhumerus -46.4111 -18.0579 86.7079
lradius 75.9312
lwrist 6.15073
lhand -22.0563 -9.59676
lfingers 7.12502
lthumb 4.3544 20.3385
rfemur -39.4144 6.3124 12.538
rtibia 14.3266
rfoot -3.8738 -27.3196
rtoes 1.18619
lfemur -3.56628 -1.13912 -24.6558
ltibia 21.6455
lfoot -15.8989 0.584586
ltoes -36.0992
23
root 6.42741 18.0302 -12.7942 -165.525 27.8102 176.372
lowerback -7.83975 -2.65805 -6.2821
upperback -6.22354 -2.73854 2.0848
thorax -1.68469 -0.945835 5.5158
lowerneck -3.80602 6.18498 2.56646
upperneck 9.66776 9.04298 -6.16937
head 4.34138 4.4084 -2.05789
rclavicle 4.01918e-015 -2.46493e-014
rhumerus -57.7469 14.931 -91.8343
rradius 44.1934
rwrist -9.58868
rhand -11.3483 -32.0229
rfingers 7.12502
rthumb 14.685 -61.4828
lclavicle 4.01918e-015 -2.46493e-014
lhumerus -46.8009 -17.9366 87.0422
lradius 75.1889
lwrist 5.26916
lhand -21.6093 -9.75938
lfingers 7.12502
lthumb 4.78608 20.1666
rfemur -39.7209 5.96627 13.2623
rtibia 15.7519
rfoot -2.67813 -26.2206
rtoes -0.51539
lfemur -3.53558 -0.997085 -24.2565
ltibia 22.6645
lfoot -15.0262 0.371716
ltoes -34.5003
24
root 6.54599 18.0235 -12.9246 -165.452 27.7271 176.68
lowerback -7.74689 -2.61536 -6.04893
upperback -6.28006 -2.6957 2.1616
thorax -1.80594 -0.922297 5.47202
lowerneck -4.88104 6.17445 3.81669
upperneck 11.0103 9.13818 -7.21745
head 4.60501 4.39345 -2.30139
rclavicle 1.33535e-014 2.3059e-014
rhumerus -57.827 14.7864 -91.8606
rradius 43.8819
rwrist -9.47269
rhand -10.9886 -31.9562
rfingers 7.12502
rthumb 15.0315 -61.3906
lclavicle 1.33535e-014 2.3059e-014
lhumerus -47.2283 -17.8615 87.4179
lradius 74.4459
lwrist 4.66512
lhand -21.4657 -10.1449
lfingers 7.12502
lthumb 4.92467 19.7778
rfemur -39.8826 5.43442 14.1381
rtibia 17.1326
rfoot -1.5618 -24.9938
rtoes -2.21687
lfemur -3.62377 -0.943545 -23.7214
ltibia 23.9103
lfoot -14.0321 0.459208
ltoes -35.2282
25
root 6.66032 18.0158 -13.0598 -165.527 27.5885 176.842
lowerback -7.62449 -2.60538 -5.75772
upperback -6.2618 -2.70993 2.11382
thorax -1.86446 -0.940344 5.2594
lowerneck -3.49077 6.05541 2.6337
upperneck 9.64866 8.8684 -6.14894
head 4.26544 4.33441 -2.0828
rclavicle 1.01042e-015 -1.74931e-014
rhumerus -57.8499 14.7486 -92.0656
rradius 43.5659
rwrist -9.31457
rhand -10.7966 -31.8339
rfingers 7.12502
rthumb 15.2164 -61.2543
lclavicle 1.01042e-015 -1.74931e-014
lhumerus -47.5528 -17.8787 87.7258
lradius 73.5828
lwrist 4.54054
lhand -21.5743 -10.0931
lfingers 7.12502
lthumb 4.81979 19.8321
rfemur -39.9402 4.80244 14.8775
rtibia 18.526
rfoot -0.943144 -23.7957
rtoes -1.93609
lfemur -3.7297 -0.821759 -23.3371
ltibia 25.3587
lfoot -13.0696 0.425424
ltoes -37.1137
